<?xml version="1.0" standalone="no"?><svg xmlns="http://www.w3.org/2000/svg" viewBox="0 0 1440 320"><path fill="#ffffff" fill-opacity="1" d="M0,224L40,213.3C80,203,160,181,240,149.3C320,117,400,75,480,74.7C560,75,640,117,720,144C800,171,880,181,960,165.3C1040,149,1120,107,1200,101.3C1280,96,1360,128,1400,144L1440,160L1440,320L1400,320C1360,320,1280,320,1200,320C1120,320,1040,320,960,320C880,320,800,320,720,320C640,320,560,320,480,320C400,320,320,320,240,320C160,320,80,320,40,320L0,320Z"></path></svg>